<?xml version="1.0" encoding="UTF-8" standalone="no"?>
<!-- Created with Inkscape (http://www.inkscape.org/) -->

<svg
   xmlns:dc="http://purl.org/dc/elements/1.1/"
   xmlns:cc="http://creativecommons.org/ns#"
   xmlns:rdf="http://www.w3.org/1999/02/22-rdf-syntax-ns#"
   xmlns:svg="http://www.w3.org/2000/svg"
   xmlns="http://www.w3.org/2000/svg"
   xmlns:sodipodi="http://sodipodi.sourceforge.net/DTD/sodipodi-0.dtd"
   xmlns:inkscape="http://www.inkscape.org/namespaces/inkscape"
   width="103.64805mm"
   height="38.907562mm"
   viewBox="0 0 103.64805 38.907562"
   version="1.1"
   id="svg36"
   inkscape:version="0.92.3 (2405546, 2018-03-11)"
   sodipodi:docname="nicecream-logo-white-font.svg">
  <defs
     id="defs30">
    <clipPath
       clipPathUnits="userSpaceOnUse"
       id="clipPath40">
      <path
         d="M 0,1000 H 1000 V 0 H 0 Z"
         id="path38"
         inkscape:connector-curvature="0" />
    </clipPath>
  </defs>
  <sodipodi:namedview
     id="base"
     pagecolor="#ffffff"
     bordercolor="#666666"
     borderopacity="1.0"
     inkscape:pageopacity="0.0"
     inkscape:pageshadow="2"
     inkscape:zoom="1.4"
     inkscape:cx="367.36485"
     inkscape:cy="-38.123932"
     inkscape:document-units="mm"
     inkscape:current-layer="layer1"
     showgrid="false"
     inkscape:window-width="1920"
     inkscape:window-height="1001"
     inkscape:window-x="-9"
     inkscape:window-y="-9"
     inkscape:window-maximized="1" />
  <metadata
     id="metadata33">
    <rdf:RDF>
      <cc:Work
         rdf:about="">
        <dc:format>image/svg+xml</dc:format>
        <dc:type
           rdf:resource="http://purl.org/dc/dcmitype/StillImage" />
        <dc:title></dc:title>
      </cc:Work>
    </rdf:RDF>
  </metadata>
  <g
     inkscape:label="Layer 1"
     inkscape:groupmode="layer"
     id="layer1"
     transform="translate(-2.1932909,-0.48966722)">
    <g
       id="g12"
       style="fill:#deaa87"
       transform="matrix(0.079375,0,0,-0.079375,-13.674068,50.306965)">
      <g
         id="g14"
         style="fill:#deaa87">
        <g
           id="g20"
           style="fill:#deaa87">
          <g
             id="g22"
             style="fill:#deaa87">
            <path
               d="m 662.875,462.798 -272.99,-9.46 c -5.954,-0.206 -9.856,-6.797 -7.569,-12.782 v 0 L 494.105,148.201 c 2.718,-7.109 11.752,-7.796 15.292,-1.166 v 0 c 60.879,113.98 117.669,220.307 161.2,301.81 v 0 c 3.314,6.206 -0.879,13.957 -7.433,13.958 v 0 c -0.096,0 -0.192,-0.002 -0.289,-0.005"
               style="fill:#deaa87;stroke:none"
               id="path32"
               inkscape:connector-curvature="0" />
          </g>
        </g>
      </g>
    </g>
    <g
       id="g34"
       transform="matrix(0.079375,0,0,-0.079375,-13.674068,50.306965)">
      <g
         id="g36"
         clip-path="url(#clipPath40)">
        <g
           id="g42"
           transform="translate(382.3167,440.5564)">
          <path
             d="m 0,0 111.788,-292.355 c 2.719,-7.109 11.752,-7.796 15.293,-1.167 60.878,113.981 117.668,220.308 161.199,301.811 3.363,6.297 -1.003,14.185 -7.721,13.952 L 7.569,12.782 C 1.615,12.576 -2.288,5.985 0,0 Z"
             style="fill:none;stroke:#2d2318;stroke-width:10;stroke-linecap:butt;stroke-linejoin:miter;stroke-miterlimit:10;stroke-dasharray:none;stroke-opacity:1"
             id="path44"
             inkscape:connector-curvature="0" />
        </g>
        <g
           id="g46"
           transform="translate(411.0549,417.6188)">
          <path
             d="m 0,0 c 54.227,62.399 91.241,39.338 68.05,-29.309 -23.192,-68.647 55.172,-83.287 43.321,-2.774 -5.063,34.399 48.905,39.546 39.755,-6.568 -9.15,-46.114 21.088,-58.549 39.173,-7.311 15.852,44.91 40.864,-28.467 61.338,25.848 20.474,54.316 20.123,57.191 16.261,88.851 C 257.49,154.054 177.668,214.509 89.61,203.767 -3.752,192.378 -54.286,100.612 -51.927,41.028 c 0.072,-1.822 0.186,-3.412 0.299,-4.7 10e-4,0.023 0.004,0.061 0.022,0.066 0.193,0.058 1.62,-4.189 1.75,-4.566 0.838,-2.447 15.025,-40.486 32.554,-41.666 C -11.067,-10.258 -5.9,-6.79 0,0"
             style="fill:#aee5cc;fill-opacity:1;fill-rule:nonzero;stroke:none"
             id="path48"
             inkscape:connector-curvature="0" />
        </g>
        <g
           id="g50"
           transform="translate(411.0549,417.6188)">
          <path
             d="m 0,0 c 54.227,62.399 91.241,39.338 68.05,-29.309 -23.192,-68.647 55.172,-83.287 43.321,-2.774 -5.063,34.399 48.905,39.546 39.755,-6.568 -9.15,-46.114 21.088,-55.371034 39.173,-4.133034 19.55963,48.0879657 30.80044,-44.88649 61.338,22.670034 19.41468,48.75456 20.123,57.191 16.261,88.851 C 257.49,154.054 177.668,214.509 89.61,203.767 -3.752,192.378 -54.286,100.612 -51.927,41.028 c 0.072,-1.822 0.186,-3.412 0.299,-4.7 1.475509,-4.803177 6.117275,-15.051268 1.772,-4.5 0.838,-2.447 15.025,-40.486 32.554,-41.666 C -11.067,-10.258 -5.9,-6.79 0,0 Z"
             style="fill:none;stroke:#3a2e21;stroke-width:10;stroke-linecap:butt;stroke-linejoin:miter;stroke-miterlimit:10;stroke-dasharray:none;stroke-opacity:1"
             id="path52"
             inkscape:connector-curvature="0"
             sodipodi:nodetypes="cccscccsccccc" />
        </g>
        <g
           id="g54"
           transform="translate(367,453.3333)">
          <path
             d="M 0,0 C -12.729,6.011 3.108,87.58 59.333,132 106.137,168.977 171.244,164.89 182,161.905 311.599,125.938 167.363,118.415 88.667,82 52.531,65.279 25.495,-12.04 0,0"
             style="fill:#daefe8;fill-opacity:1;fill-rule:nonzero;stroke:none"
             id="path56"
             inkscape:connector-curvature="0" />
        </g>
        <g
           id="g58"
           transform="translate(506.3333,505.0223)">
          <path
             d="m 0,0 c 0,-10.138 -8.88,-18.356 -19.833,-18.356 -10.954,0 -19.834,8.218 -19.834,18.356 0,10.138 8.88,18.356 19.834,18.356 C -8.88,18.356 0,10.138 0,0"
             style="fill:#d8eade;fill-opacity:1;fill-rule:nonzero;stroke:none"
             id="path60"
             inkscape:connector-curvature="0" />
        </g>
      </g>
    </g>
    <text
       xml:space="preserve"
       style="font-style:normal;font-variant:normal;font-weight:normal;font-stretch:normal;font-size:10.58333302px;line-height:1.25;font-family:'Comic Sans MS';-inkscape-font-specification:'Comic Sans MS';letter-spacing:0px;word-spacing:0px;fill:#000000;fill-opacity:1;stroke:none;stroke-width:0.26458332"
       x="13.229166"
       y="121.24107"
       id="text109"><tspan
         sodipodi:role="line"
         id="tspan107"
         x="13.229166"
         y="130.4366"
         style="font-style:normal;font-variant:normal;font-weight:normal;font-stretch:normal;font-family:'Comic Sans MS';-inkscape-font-specification:'Comic Sans MS';stroke-width:0.26458332" /></text>
    <text
       xml:space="preserve"
       style="font-style:normal;font-variant:normal;font-weight:normal;font-stretch:normal;font-size:10.58333302px;line-height:1.25;font-family:'Comic Sans MS';-inkscape-font-specification:'Comic Sans MS';letter-spacing:0px;word-spacing:0px;fill:#000000;fill-opacity:1;stroke:none;stroke-width:0.26458332"
       x="15.686011"
       y="108.57887"
       id="text113"><tspan
         sodipodi:role="line"
         id="tspan111"
         x="15.686011"
         y="117.77441"
         style="font-style:normal;font-variant:normal;font-weight:normal;font-stretch:normal;font-family:'Comic Sans MS';-inkscape-font-specification:'Comic Sans MS';stroke-width:0.26458332" /></text>
    <text
       xml:space="preserve"
       style="font-style:normal;font-variant:normal;font-weight:normal;font-stretch:normal;font-size:10.58333302px;line-height:1.25;font-family:'Comic Sans MS';-inkscape-font-specification:'Comic Sans MS';letter-spacing:0px;word-spacing:0px;fill:#000000;fill-opacity:1;stroke:none;stroke-width:0.26458332"
       x="36.285713"
       y="105.17708"
       id="text117"><tspan
         sodipodi:role="line"
         id="tspan115"
         x="36.285713"
         y="114.37261"
         style="stroke-width:0.26458332" /></text>
    <text
       xml:space="preserve"
       style="font-style:normal;font-variant:normal;font-weight:normal;font-stretch:normal;font-size:14.11111069px;line-height:1.25;font-family:'Comic Sans MS';-inkscape-font-specification:'Comic Sans MS';letter-spacing:0px;word-spacing:0px;fill:#000000;fill-opacity:1;stroke:none;stroke-width:0.26458332"
       x="1.133924"
       y="27.880943"
       id="text121"><tspan
         sodipodi:role="line"
         id="tspan119"
         x="1.133924"
         y="27.880943"
         style="font-size:17.63888931px;stroke-width:0.26458332;fill:#ffffff">N    ceCream</tspan></text>
  </g>
</svg>
